<svg xmlns="http://www.w3.org/2000/svg" width="23" height="24" viewBox="0 0 23 24" fill="none">
  <path d="M4.1479 2.8998C4.28579 2.8998 4.42233 2.87265 4.54972 2.81988C4.67711 2.76711 4.79287 2.68977 4.89037 2.59227C4.98787 2.49477 5.06521 2.37901 5.11798 2.25162C5.17075 2.12423 5.1979 1.98769 5.1979 1.8498C5.1979 1.71192 5.17075 1.57538 5.11798 1.44799C5.06521 1.3206 4.98787 1.20484 4.89037 1.10734C4.79287 1.00984 4.67711 0.932499 4.54972 0.879731C4.42233 0.826964 4.28579 0.799805 4.1479 0.799805C3.86943 0.799805 3.60236 0.910429 3.40544 1.10734C3.20853 1.30426 3.0979 1.57133 3.0979 1.8498C3.0979 2.12828 3.20853 2.39535 3.40544 2.59227C3.60236 2.78918 3.86943 2.8998 4.1479 2.8998ZM7.4239 6.61261C7.61127 5.74708 8.00119 4.93831 8.56166 4.25265C9.12213 3.567 9.83719 3.02401 10.6482 2.66823C11.4591 2.31246 12.3429 2.15403 13.2269 2.20596C14.111 2.25789 14.9701 2.51869 15.7339 2.96696C16.4976 3.41523 17.1442 4.0382 17.6205 4.78475C18.0969 5.5313 18.3894 6.38016 18.4742 7.26167C18.5589 8.14319 18.4335 9.03223 18.1081 9.85586C17.7827 10.6795 17.2666 11.4142 16.6023 11.9998C17.2655 12.5855 17.7805 13.32 18.1051 14.1431C18.4297 14.9662 18.5546 15.8545 18.4696 16.7353C18.3846 17.616 18.0921 18.464 17.6161 19.2099C17.1402 19.9557 16.4942 20.5782 15.7312 21.0263C14.9683 21.4743 14.11 21.7352 13.2267 21.7875C12.3435 21.8399 11.4604 21.6822 10.6498 21.3274C9.8393 20.9726 9.12437 20.4307 8.56363 19.7463C8.00289 19.0619 7.61231 18.2543 7.4239 17.3898C6.59116 17.6249 5.71526 17.6639 4.86493 17.5036C4.01461 17.3433 3.21299 16.9882 2.52299 16.466C1.83299 15.9438 1.27338 15.2689 0.888075 14.4941C0.502768 13.7193 0.302246 12.8658 0.302246 12.0005C0.302246 11.1352 0.502768 10.2817 0.888075 9.5069C1.27338 8.73212 1.83299 8.05717 2.52299 7.53501C3.21299 7.01286 4.01461 6.6577 4.86493 6.49742C5.71526 6.33713 6.59116 6.37748 7.4239 6.61261ZM4.1479 23.1998C4.42638 23.1998 4.69345 23.0892 4.89037 22.8923C5.08728 22.6954 5.1979 22.4283 5.1979 22.1498C5.1979 21.8713 5.08728 21.6043 4.89037 21.4073C4.69345 21.2104 4.42638 21.0998 4.1479 21.0998C3.86943 21.0998 3.60236 21.2104 3.40544 21.4073C3.20853 21.6043 3.0979 21.8713 3.0979 22.1498C3.0979 22.4283 3.20853 22.6954 3.40544 22.8923C3.60236 23.0892 3.86943 23.1998 4.1479 23.1998ZM22.6979 11.9998C22.6979 12.2783 22.5873 12.5454 22.3904 12.7423C22.1935 12.9392 21.9264 13.0498 21.6479 13.0498C21.3694 13.0498 21.1024 12.9392 20.9054 12.7423C20.7085 12.5454 20.5979 12.2783 20.5979 11.9998C20.5979 11.7213 20.7085 11.4543 20.9054 11.2573C21.1024 11.0604 21.3694 10.9498 21.6479 10.9498C21.9264 10.9498 22.1935 11.0604 22.3904 11.2573C22.5873 11.4543 22.6979 11.7213 22.6979 11.9998Z" fill="#8E8E8E"/>
</svg>