<svg width="16" height="16" viewBox="0 0 16 16" fill="none" xmlns="http://www.w3.org/2000/svg">
<g id="edit-05">
<path id="Icon" d="M7.41209 3.2566H4.92416C3.9289 3.2566 3.43126 3.2566 3.05112 3.45029C2.71674 3.62066 2.44488 3.89252 2.2745 4.22691C2.08081 4.60705 2.08081 5.10468 2.08081 6.09995V11.0758C2.08081 12.0711 2.08081 12.5687 2.2745 12.9488C2.44488 13.2832 2.71674 13.5551 3.05112 13.7255C3.43126 13.9192 3.92889 13.9192 4.92416 13.9192H9.90002C10.8953 13.9192 11.3929 13.9192 11.7731 13.7255C12.1074 13.5551 12.3793 13.2832 12.5497 12.9488C12.7434 12.5687 12.7434 12.0711 12.7434 11.0758V8.58788M5.63498 10.365H6.62692C6.9167 10.365 7.06158 10.365 7.19793 10.3322C7.31882 10.3032 7.43438 10.2553 7.54038 10.1904C7.65994 10.1171 7.76239 10.0147 7.96729 9.80977L13.6319 4.14514C14.1227 3.65441 14.1227 2.85878 13.6319 2.36805C13.1412 1.87732 12.3456 1.87732 11.8548 2.36805L6.19018 8.03268C5.98528 8.23758 5.88283 8.34003 5.80956 8.45959C5.74461 8.56559 5.69674 8.68115 5.66772 8.80204C5.63498 8.93839 5.63498 9.08327 5.63498 9.37305V10.365Z" stroke="#555555" stroke-width="1.18473" stroke-linecap="round" stroke-linejoin="round"/>
</g>
</svg>
