<svg width="44" height="44" viewBox="0 0 44 44" fill="none" xmlns="http://www.w3.org/2000/svg">
<path d="M17.4804 24.3332C17.9984 26.346 19.8255 27.8332 22 27.8332C24.1745 27.8332 26.0016 26.346 26.5196 24.3332M20.854 11.2245L12.9413 17.3789C12.4124 17.7902 12.1479 17.9959 11.9574 18.2535C11.7886 18.4817 11.6629 18.7388 11.5864 19.0121C11.5 19.3206 11.5 19.6557 11.5 20.3258V28.7665C11.5 30.0733 11.5 30.7267 11.7543 31.2258C11.978 31.6649 12.335 32.0218 12.774 32.2455C13.2731 32.4999 13.9265 32.4999 15.2333 32.4999H28.7667C30.0735 32.4999 30.7269 32.4999 31.226 32.2455C31.665 32.0218 32.022 31.6649 32.2457 31.2258C32.5 30.7267 32.5 30.0733 32.5 28.7665V20.3258C32.5 19.6557 32.5 19.3206 32.4136 19.0121C32.3371 18.7388 32.2114 18.4817 32.0426 18.2535C31.8521 17.9959 31.5876 17.7902 31.0587 17.3789L23.146 11.2245C22.7361 10.9057 22.5312 10.7464 22.3049 10.6851C22.1052 10.631 21.8948 10.631 21.6951 10.6851C21.4688 10.7464 21.2639 10.9057 20.854 11.2245Z" stroke="#2D2D2D" stroke-width="2" stroke-linecap="round" stroke-linejoin="round"/>
</svg>
