<svg width="52" height="52" viewBox="0 0 52 52" fill="none" xmlns="http://www.w3.org/2000/svg">
<g id="Group 2658">
<path id="Vector" d="M52 26C52 11.6406 40.3594 0 26 0C11.6406 0 0 11.6406 0 26C0 40.3594 11.6406 52 26 52C40.3594 52 52 40.3594 52 26Z" fill="#FEE500"/>
<g id="Group">
<path id="Vector_2" d="M22.3816 26.4022H24.0298L23.202 24.0654L22.3816 26.4022Z" fill="#191600"/>
<path id="Vector_3" d="M26.0518 14.1323C18.1624 14.1323 11.738 19.1795 11.738 25.3987C11.738 29.4204 14.4118 32.9512 18.4334 34.9217C18.2137 35.6542 17.027 39.7711 16.9684 40.0934C16.9684 40.0934 16.9684 40.3352 17.1002 40.4304C17.2101 40.4744 17.3273 40.4744 17.4372 40.4304C17.8914 40.3645 22.6529 37.0168 23.4733 36.4381C24.3157 36.5553 25.1655 36.6139 26.0152 36.6139C33.9046 36.6139 40.2997 31.574 40.2997 25.3548C40.2997 19.1355 33.9413 14.1323 26.0518 14.1323Z" fill="#191600"/>
</g>
</g>
</svg>
