<svg width="52" height="52" viewBox="0 0 52 52" fill="none" xmlns="http://www.w3.org/2000/svg">
<g id="Group 2659">
<path id="Vector" d="M26 0.5C40.0833 0.5 51.5 11.9167 51.5 26C51.5 40.0833 40.0833 51.5 26 51.5C11.9167 51.5 0.5 40.0833 0.5 26C0.5 11.9167 11.9167 0.5 26 0.5Z" fill="white" stroke="#D8D8D8"/>
<g id="Group 2656">
<path id="Shape" fill-rule="evenodd" clip-rule="evenodd" d="M39.2184 26.0591C39.2184 25.0635 39.129 24.1063 38.9631 23.1873H25.74V28.6182H33.2961C32.9706 30.3732 31.9814 31.8602 30.4944 32.8557V36.3785H35.0319C37.6868 33.9343 39.2184 30.3349 39.2184 26.0591Z" fill="#4285F4"/>
<path id="Shape_2" fill-rule="evenodd" clip-rule="evenodd" d="M25.74 39.78C29.5308 39.78 32.709 38.5228 35.0319 36.3785L30.4945 32.8557C29.2373 33.6981 27.629 34.1959 25.74 34.1959C22.0832 34.1959 18.9881 31.7262 17.884 28.4076H13.1934V32.0452C15.5036 36.6338 20.2517 39.78 25.74 39.78Z" fill="#34A853"/>
<path id="Shape_3" fill-rule="evenodd" clip-rule="evenodd" d="M17.8839 28.4076C17.6031 27.5652 17.4436 26.6654 17.4436 25.74C17.4436 24.8146 17.6031 23.9148 17.8839 23.0724V19.4348H13.1933C12.2424 21.3302 11.7 23.4744 11.7 25.74C11.7 28.0055 12.2424 30.1498 13.1933 32.0452L17.8839 28.4076Z" fill="#FBBC05"/>
<path id="Shape_4" fill-rule="evenodd" clip-rule="evenodd" d="M25.74 17.2841C27.8013 17.2841 29.6521 17.9925 31.1071 19.3837L35.1341 15.3568C32.7026 13.0912 29.5244 11.7 25.74 11.7C20.2517 11.7 15.5036 14.8462 13.1934 19.4348L17.884 23.0724C18.9881 19.7539 22.0832 17.2841 25.74 17.2841Z" fill="#EA4335"/>
</g>
</g>
</svg>
