<svg xmlns="http://www.w3.org/2000/svg" width="20" height="21" viewBox="0 0 20 21" fill="none">
<path d="M9.99992 11.3337C11.3806 11.3337 12.4999 10.2144 12.4999 8.83366C12.4999 7.45295 11.3806 6.33366 9.99992 6.33366C8.61921 6.33366 7.49992 7.45295 7.49992 8.83366C7.49992 10.2144 8.61921 11.3337 9.99992 11.3337Z" fill="#555555"/>
<path d="M9.99992 18.8337C13.3333 15.5003 16.6666 12.5156 16.6666 8.83366C16.6666 5.15176 13.6818 2.16699 9.99992 2.16699C6.31802 2.16699 3.33325 5.15176 3.33325 8.83366C3.33325 12.5156 6.66659 15.5003 9.99992 18.8337Z" fill="#555555"/>
<path d="M9.99992 11.3337C11.3806 11.3337 12.4999 10.2144 12.4999 8.83366C12.4999 7.45295 11.3806 6.33366 9.99992 6.33366C8.61921 6.33366 7.49992 7.45295 7.49992 8.83366C7.49992 10.2144 8.61921 11.3337 9.99992 11.3337Z" stroke="#555555" stroke-width="1.66667" stroke-linecap="round" stroke-linejoin="round"/>
<path d="M9.99992 18.8337C13.3333 15.5003 16.6666 12.5156 16.6666 8.83366C16.6666 5.15176 13.6818 2.16699 9.99992 2.16699C6.31802 2.16699 3.33325 5.15176 3.33325 8.83366C3.33325 12.5156 6.66659 15.5003 9.99992 18.8337Z" stroke="#555555" stroke-width="1.66667" stroke-linecap="round" stroke-linejoin="round"/>
<circle cx="10" cy="8.83301" r="2.5" fill="white"/>
</svg>