<svg width="44" height="44" viewBox="0 0 44 44" fill="none" xmlns="http://www.w3.org/2000/svg">
<path d="M31.3334 32.5C31.3334 30.8718 31.3334 30.0578 31.1325 29.3953C30.68 27.9039 29.5129 26.7367 28.0214 26.2843C27.359 26.0833 26.5449 26.0833 24.9167 26.0833H19.0834C17.4553 26.0833 16.6412 26.0833 15.9787 26.2843C14.4873 26.7367 13.3201 27.9039 12.8677 29.3953C12.6667 30.0578 12.6667 30.8718 12.6667 32.5M27.2501 16.75C27.2501 19.6495 24.8996 22 22.0001 22C19.1006 22 16.7501 19.6495 16.7501 16.75C16.7501 13.8505 19.1006 11.5 22.0001 11.5C24.8996 11.5 27.2501 13.8505 27.2501 16.75Z" stroke="#8E8E8E" stroke-width="2.33333" stroke-linecap="round" stroke-linejoin="round"/>
</svg>
