<svg xmlns="http://www.w3.org/2000/svg" width="17" height="24" viewBox="0 0 17 24" fill="none">
  <path d="M0.0805664 9.74673C0.0805664 9.19671 0.355574 8.49862 0.884435 7.61013C1.4133 6.72165 1.94216 5.98124 2.42871 5.41007C2.55563 5.26199 2.72487 5.05044 2.91526 4.81775C3.10565 4.58505 3.23258 4.45812 3.25373 4.43697L4.03644 5.34661C4.62877 6.00239 5.15763 6.7428 5.64418 7.61013C6.13073 8.47746 6.38458 9.17556 6.38458 9.74673C6.38458 10.6141 6.08842 11.3756 5.47495 11.9891C4.88262 12.6026 4.14222 12.9199 3.25373 12.9199C2.3864 12.9199 1.62484 12.6026 1.01136 11.9891C0.397882 11.3545 0.0805664 10.6141 0.0805664 9.74673ZM6.68075 18.5258C6.68075 17.9123 6.84998 17.2142 7.18845 16.3892C7.52692 15.5854 7.95001 14.8238 8.45772 14.1469C9.43082 12.8564 10.3405 11.7776 11.229 10.9102C11.3136 10.8468 11.504 10.6775 11.779 10.4025L12.3078 10.9102C13.1328 11.6929 14.0636 12.7718 15.1002 14.1257C15.6502 14.8449 16.0733 15.6065 16.4118 16.4104C16.7503 17.2142 16.9195 17.9123 16.9195 18.5258C16.9195 19.9855 16.4329 21.1913 15.4387 22.1855C14.4444 23.1798 13.2175 23.6663 11.779 23.6663C10.3405 23.6663 9.13466 23.1586 8.1404 22.1644C7.14614 21.1701 6.68075 19.9432 6.68075 18.5258ZM9.89622 3.92926C9.89622 3.01962 10.5943 1.81382 12.0117 0.333008L12.5405 0.925332C12.9425 1.39073 13.3021 1.89844 13.6194 2.49076C13.9367 3.06193 14.106 3.54848 14.106 3.92926C14.106 4.52158 13.8944 4.98698 13.4925 5.38892C13.0905 5.7697 12.604 5.98124 12.0117 5.98124C11.3982 5.98124 10.8905 5.79085 10.4885 5.38892C10.1078 4.98698 9.89622 4.50043 9.89622 3.92926Z" fill="#1E90FF"/>
</svg>