<svg xmlns="http://www.w3.org/2000/svg" width="29" height="28" viewBox="0 0 29 28" fill="none">
  <path d="M25.4436 10.8675L20.3113 11.8056L20.1839 11.5518L24.07 8.07693C24.181 7.97847 24.2512 7.84209 24.2668 7.69458C24.2824 7.54707 24.2423 7.39906 24.1544 7.27957C24.0647 7.16035 23.9328 7.07993 23.7857 7.05472C23.6386 7.0295 23.4875 7.06142 23.3632 7.14394L18.9533 9.92475C18.8611 9.84019 18.7664 9.74635 18.6767 9.67106L20.8991 4.95349C20.9703 4.82514 20.9886 4.67421 20.9506 4.53243C20.9127 4.39065 20.8213 4.26912 20.6954 4.19357C20.5654 4.12218 20.4127 4.10377 20.2694 4.14217C20.1261 4.18057 20.0031 4.27283 19.9262 4.39969L16.961 8.68061L16.6895 8.59442L16.9814 3.38098C16.9892 3.23497 16.942 3.09134 16.8492 2.97833C16.7564 2.86532 16.6247 2.79114 16.48 2.77038C16.3346 2.7464 16.1856 2.77908 16.0636 2.86166C15.9416 2.94424 15.8559 3.07044 15.8241 3.2143L14.6764 8.30943L14.2364 8.2982L12.4735 3.38701C12.4238 3.24838 12.3236 3.13358 12.1931 3.06546C12.0625 2.99735 11.9111 2.98095 11.769 3.01954C11.6278 3.05911 11.5063 3.1494 11.4276 3.27314C11.349 3.39688 11.3188 3.54531 11.3429 3.68995L12.2716 8.82466L12.0154 8.94296L8.5404 5.05671C8.44081 4.94784 8.30444 4.87984 8.15755 4.86597C8.01066 4.8521 7.86394 4.8933 7.74573 4.98159C7.62862 5.0707 7.54925 5.20068 7.52365 5.3456C7.49806 5.49052 7.52802 5.63975 7.60752 5.76358L10.3909 10.1828L10.1372 10.4594L5.42876 8.23459C5.2982 8.16556 5.14656 8.14839 5.0039 8.18661C4.86125 8.22484 4.73828 8.31559 4.65973 8.44066C4.58852 8.56901 4.56992 8.72001 4.60791 8.86179C4.6459 9.00356 4.73751 9.12504 4.86335 9.20059L9.156 12.1725C9.11793 12.2615 9.08588 12.353 9.06038 12.4464L3.85388 12.143C3.70601 12.1381 3.56145 12.1877 3.44767 12.2822C3.33388 12.3768 3.25875 12.5098 3.23646 12.6561C3.21584 12.802 3.25115 12.9504 3.33516 13.0715C3.41918 13.1926 3.54574 13.2776 3.68967 13.3094L8.78484 14.4571C8.77889 14.5852 8.7833 14.7136 8.7982 14.8409L3.88462 16.5945C3.74711 16.6484 3.63392 16.7507 3.56667 16.8822C3.49942 17.0137 3.48272 17.1652 3.51955 17.3082C3.55912 17.4494 3.64931 17.571 3.77305 17.6497C3.89679 17.7284 4.04541 17.7585 4.19005 17.7344L9.32215 16.7963L9.4523 17.0594L5.56593 20.5343C5.45325 20.6294 5.38219 20.7646 5.36771 20.9113C5.35323 21.0581 5.39642 21.2047 5.48834 21.3199C5.57617 21.4392 5.70605 21.5207 5.85163 21.5481C5.9972 21.5754 6.14766 21.5466 6.27279 21.4673L10.6804 18.6772C10.7694 18.7678 10.8649 18.8518 10.9662 18.9284L8.73464 23.6484C8.6656 23.779 8.64833 23.9309 8.68655 24.0735C8.72478 24.2162 8.81567 24.3391 8.94074 24.4176C9.07175 24.4844 9.2229 24.5003 9.36495 24.4623C9.507 24.4242 9.62972 24.3349 9.70978 24.2116L12.6725 19.9214L12.9464 20.0168L12.6523 25.2209C12.6444 25.3684 12.6916 25.5135 12.7847 25.628C12.8778 25.7426 13.0101 25.8185 13.156 25.8409C13.3019 25.8615 13.4503 25.8263 13.5714 25.7423C13.6925 25.6583 13.7775 25.5316 13.8093 25.3877L14.9571 20.2926C15.0846 20.2944 15.2119 20.2868 15.3383 20.2699L17.1014 25.181C17.1512 25.3206 17.2511 25.4365 17.3818 25.5062C17.5126 25.5759 17.6646 25.5943 17.8081 25.5578C17.9519 25.5196 18.0757 25.4281 18.1545 25.3018C18.2332 25.1756 18.261 25.024 18.232 24.8781L17.3031 19.7434L17.5595 19.6251L21.0343 23.5114C21.1326 23.6222 21.2693 23.6916 21.4168 23.7055C21.5643 23.7194 21.7118 23.6769 21.8292 23.5864C21.9482 23.4988 22.0289 23.3687 22.0546 23.2231C22.0803 23.0775 22.0492 22.9276 21.9674 22.8044L19.1865 18.3945L19.4377 18.1086L24.1484 20.3428C24.279 20.4118 24.4308 20.4289 24.5735 20.3907C24.7161 20.3524 24.8391 20.2617 24.9177 20.1366C24.9867 20.0061 25.0037 19.8542 24.9655 19.7116C24.9273 19.5689 24.8366 19.446 24.7115 19.3674L20.4282 16.3931L20.5168 16.1309L25.7301 16.4226C25.8776 16.4319 26.0231 16.384 26.1363 16.2889C26.2495 16.1939 26.3218 16.0589 26.3382 15.912C26.3588 15.7661 26.3237 15.6177 26.2397 15.4965C26.1557 15.3754 26.0292 15.2904 25.8852 15.2586L20.8018 14.1177C20.7695 13.9972 20.7929 13.8618 20.7767 13.7271L25.6903 11.9735C25.8276 11.922 25.941 11.8216 26.0088 11.6916C26.0766 11.5616 26.0942 11.4111 26.0578 11.2691C26.0137 11.144 25.9296 11.037 25.8186 10.9644C25.7076 10.8919 25.5759 10.8578 25.4436 10.8675ZM15.5569 16.9335C14.8639 17.1166 14.1265 17.0182 13.5058 16.6598C12.885 16.3014 12.4312 15.7121 12.2432 15.0204C12.0575 14.3272 12.1547 13.5888 12.5135 12.9673C12.8722 12.3459 13.4633 11.8924 14.1564 11.7067C14.8495 11.521 15.5881 11.6182 16.2095 11.977C16.831 12.3357 17.2844 12.9267 17.4701 13.6198C17.6558 14.3129 17.5586 15.0514 17.1999 15.6729C16.8411 16.2943 16.25 16.7478 15.5569 16.9335Z" fill="#FD9904"/>
</svg>