<svg width="228" height="239" viewBox="0 0 228 239" fill="none" xmlns="http://www.w3.org/2000/svg">
<rect x="14" y="29.113" width="17.394" height="10.6771" rx="2.7485" transform="rotate(-48.9278 14 29.113)" fill="#FF7F7F"/>
<rect x="182" y="39.1081" width="17.394" height="10.6771" rx="2.7485" transform="rotate(-31.5764 182 39.1081)" fill="#9AC9FF"/>
<rect x="58" y="55.4987" width="17.394" height="10.6771" rx="2.7485" transform="rotate(-41.3819 58 55.4987)" fill="#83DA2B"/>
<rect x="190.326" y="143.142" width="15.4389" height="9.4383" rx="2.7485" transform="rotate(-16.6345 190.326 143.142)" fill="#FF7F7F"/>
<rect x="198" y="215.381" width="16.2821" height="10.1079" rx="2.7485" transform="rotate(-44.3455 198 215.381)" fill="#FFB374"/>
<rect x="36.6104" y="192.939" width="15.1117" height="9.41522" rx="2.7485" transform="rotate(-7.37175 36.6104 192.939)" fill="#83DA2B"/>
<rect x="12" y="209.732" width="13.2307" height="8.13622" rx="2.7485" transform="rotate(-51.426 12 209.732)" fill="#FF7F7F"/>
<rect x="83.7104" y="15.9016" width="13.5925" height="8.34546" rx="2.7485" transform="rotate(-126.018 83.7104 15.9016)" fill="#FFB374"/>
<rect x="194" y="15.5879" width="13.7315" height="8.95819" rx="2.7485" transform="rotate(-50.4496 194 15.5879)" fill="#FF7F7F"/>
<rect x="211" y="78.3767" width="14.7545" height="9.31963" rx="2.7485" transform="rotate(-50.4496 211 78.3767)" fill="#83DA2B"/>
<rect x="24.1743" y="92.5315" width="13.9007" height="8.99282" rx="2.7485" transform="rotate(-126.018 24.1743 92.5315)" fill="#9AC9FF"/>
<rect x="38.4736" y="169.966" width="11.4052" height="6.9586" rx="2.7485" transform="rotate(156.342 38.4736 169.966)" fill="#FFB374"/>
<circle cx="114" cy="124" r="60" fill="#FFDC17"/>
<path d="M80.5458 107.98C79.5003 106.287 79.483 106.104 80.2575 104.922C81.4103 103.162 82.3266 103.338 85.127 105.856C90.1856 110.404 95.8174 110.274 100.354 105.505C102.179 103.588 103.312 103.238 104.348 104.274C106.305 106.231 103.48 110.455 98.6523 112.792C95.8733 114.137 91.1009 114.369 87.8694 113.315C85.0237 112.388 81.8339 110.064 80.5458 107.98Z" fill="black"/>
<path d="M123.706 109.796C121.18 107.361 120.568 105.547 121.841 104.274C122.908 103.206 124.703 103.587 125.837 105.121C127.273 107.063 130.256 108.681 133.127 109.075C136.252 109.503 139.377 108.277 141.78 105.681C143.812 103.485 144.633 103.239 145.857 104.462C147.204 105.81 146.788 107.391 144.495 109.636C138.623 115.383 129.575 115.453 123.706 109.796Z" fill="black"/>
<path d="M102.697 126.465C109.106 131.075 117.258 130.913 123.148 126.057C125.899 123.789 127.841 124.203 127.841 127.057C127.841 129.813 121.73 133.755 116.068 134.65C108.675 135.818 97.8392 131.545 97.8392 127.461C97.8392 124.745 99.7588 124.351 102.697 126.465Z" fill="black"/>
</svg>

